<?xml version="1.0" encoding="UTF-8" standalone="no"?>
<!-- Created with Inkscape (http://www.inkscape.org/) -->

<svg
   xmlns:dc="http://purl.org/dc/elements/1.1/"
   xmlns:cc="http://creativecommons.org/ns#"
   xmlns:rdf="http://www.w3.org/1999/02/22-rdf-syntax-ns#"
   xmlns:svg="http://www.w3.org/2000/svg"
   xmlns="http://www.w3.org/2000/svg"
   xmlns:sodipodi="http://sodipodi.sourceforge.net/DTD/sodipodi-0.dtd"
   xmlns:inkscape="http://www.inkscape.org/namespaces/inkscape"
   width="1000"
   height="400"
   id="svg2"
   version="1.1"
   inkscape:version="0.48.4 r9939"
   sodipodi:docname="relate-logo-eggplant.svg">
  <defs
     id="defs4" />
  <sodipodi:namedview
     id="base"
     pagecolor="#353535"
     bordercolor="#666666"
     borderopacity="1.0"
     inkscape:pageopacity="0.90588235"
     inkscape:pageshadow="2"
     inkscape:zoom="0.98994949"
     inkscape:cx="307.73683"
     inkscape:cy="224.70574"
     inkscape:document-units="px"
     inkscape:current-layer="g3914"
     showgrid="false"
     showguides="true"
     inkscape:guide-bbox="true"
     inkscape:window-width="1920"
     inkscape:window-height="1056"
     inkscape:window-x="0"
     inkscape:window-y="24"
     inkscape:window-maximized="1" />
  <metadata
     id="metadata7">
    <rdf:RDF>
      <cc:Work
         rdf:about="">
        <dc:format>image/svg+xml</dc:format>
        <dc:type
           rdf:resource="http://purl.org/dc/dcmitype/StillImage" />
        <dc:title></dc:title>
      </cc:Work>
    </rdf:RDF>
  </metadata>
  <g
     inkscape:label="Layer 1"
     inkscape:groupmode="layer"
     id="layer1"
     transform="translate(0,-652.36218)">
    <flowRoot
       xml:space="preserve"
       id="flowRoot2985"
       style="fill:black;stroke:none;stroke-opacity:1;stroke-width:1px;stroke-linejoin:miter;stroke-linecap:butt;fill-opacity:1;font-family:Ubuntu;font-style:normal;font-weight:normal;font-size:200px;line-height:125%;letter-spacing:0px;word-spacing:0px;-inkscape-font-specification:Ubuntu;font-stretch:normal;font-variant:normal"><flowRegion
         id="flowRegion2987"><rect
           id="rect2989"
           width="854.28571"
           height="242.85715"
           x="77.14286"
           y="88.571426" /></flowRegion><flowPara
         id="flowPara2991" /></flowRoot>    <g
       id="g3914"
       transform="matrix(1.3168938,0,0,2.0407008,-184.06981,-851.52989)">
      <text
         xml:space="preserve"
         style="font-size:200px;font-style:normal;font-variant:normal;font-weight:normal;font-stretch:normal;line-height:125%;letter-spacing:15px;word-spacing:0px;fill:#ff533d;fill-opacity:1;stroke:none;font-family:Ubuntu;-inkscape-font-specification:Ubuntu"
         x="516.33691"
         y="925.57263"
         id="text3004"
         sodipodi:linespacing="125%"><tspan
           sodipodi:role="line"
           x="523.83691"
           y="925.57263"
           id="tspan3006"><tspan
             x="516.33691"
             y="925.57263"
             style="font-size:240px;text-align:center;line-height:125%;writing-mode:lr-tb;text-anchor:middle;fill:#ff533d;fill-opacity:1;stroke:none;font-family:Ubuntu;-inkscape-font-specification:Ubuntu"
             id="tspan3008">r   late</tspan></tspan></text>
      <text
         transform="translate(0,652.36218)"
         sodipodi:linespacing="125%"
         id="text3906"
         y="166.65475"
         x="321.22852"
         style="font-size:200px;font-style:normal;font-variant:normal;font-weight:normal;font-stretch:normal;line-height:125%;letter-spacing:0px;word-spacing:0px;fill:#000000;fill-opacity:1;stroke:none;font-family:Ubuntu;-inkscape-font-specification:Ubuntu"
         xml:space="preserve"><tspan
           y="166.65475"
           x="321.22852"
           id="tspan3908"
           sodipodi:role="line" /></text>
      <g
         id="g3846"
         transform="matrix(1.3063865,0,0,0.96861933,-97.708589,255.12511)"
         style="fill:#ff533d;fill-opacity:1">
        <g
           id="g3047"
           transform="matrix(0.94130014,0,0,1.0034304,21.532635,205.48004)"
           style="fill:#ff533d;fill-opacity:1;stroke:none">
          <path
             transform="matrix(0.67250172,0,0,1.0945138,-46.006911,603.82874)"
             d="m 641.44687,-212.65752 c 0,6.97365 -36.63312,12.62691 -81.82236,12.62691 -45.18924,0 -81.82236,-5.65326 -81.82236,-12.62691 0,-6.97364 36.63312,-12.6269 81.82236,-12.6269 45.18924,0 81.82236,5.65326 81.82236,12.6269 z"
             sodipodi:ry="12.626906"
             sodipodi:rx="81.822357"
             sodipodi:cy="-212.65752"
             sodipodi:cx="559.62451"
             id="path3781"
             style="fill:#ff533d;fill-opacity:1;fill-rule:evenodd;stroke:none"
             sodipodi:type="arc" />
          <g
             id="g3792-3-5"
             transform="matrix(1,0,0,0.88056685,-0.15021567,108.48307)"
             style="fill:#ff533d;fill-opacity:1;stroke:none">
            <path
               transform="matrix(0.66953777,0,0,1.0945138,-44.221983,651.78471)"
               sodipodi:type="arc"
               style="fill:#ff533d;fill-opacity:1;fill-rule:evenodd;stroke:none"
               id="path3781-3-6-3"
               sodipodi:cx="559.62451"
               sodipodi:cy="-212.65752"
               sodipodi:rx="81.822357"
               sodipodi:ry="12.626906"
               d="m 640.75292,-214.29855 c 5.87294,6.9145 -25.68852,13.25453 -70.4945,14.16085 -44.80598,0.90632 -85.88937,-3.96428 -91.76231,-10.87878 -0.79325,-0.93393 -0.90685,-1.87862 -0.33868,-2.81645 l 81.46708,1.17541 z"
               sodipodi:start="6.1528533"
               sodipodi:end="9.5180006" />
            <path
               id="rect3803-7-5"
               d="m 275.65695,396.66667 0,22.53017 109.72996,0 0,-22.53017 -0.4057,0 c -0.9058,7.24615 -24.94421,13.05402 -54.49132,13.05402 -29.54713,0 -53.60686,-5.80787 -54.51266,-13.05402 l -0.32028,0 z"
               style="fill:#ff533d;fill-opacity:1;fill-rule:nonzero;stroke:none"
               inkscape:connector-curvature="0" />
          </g>
          <g
             id="g3792-3-5-3"
             transform="matrix(1,0,0,0.8158739,-0.46313026,99.265688)"
             style="fill:#ff533d;fill-opacity:1;stroke:none">
            <path
               transform="matrix(0.66953777,0,0,1.0945138,-44.221983,651.78471)"
               sodipodi:type="arc"
               style="fill:#ff533d;fill-opacity:1;fill-rule:evenodd;stroke:none"
               id="path3781-3-6-3-6"
               sodipodi:cx="559.62451"
               sodipodi:cy="-212.65752"
               sodipodi:rx="81.822357"
               sodipodi:ry="12.626906"
               d="m 640.75292,-214.29855 c 5.87294,6.9145 -25.68852,13.25453 -70.4945,14.16085 -44.80598,0.90632 -85.88937,-3.96428 -91.76231,-10.87878 -0.79325,-0.93393 -0.90685,-1.87862 -0.33868,-2.81645 l 81.46708,1.17541 z"
               sodipodi:start="6.1528533"
               sodipodi:end="9.5180006" />
            <path
               id="rect3803-7-5-7"
               d="m 275.69581,396.66667 0,22.53017 109.57452,0 0,-22.53017 -0.40513,0 c -0.90451,7.24615 -24.90887,13.05402 -54.41412,13.05402 -29.50528,0 -53.53093,-5.80787 -54.43544,-13.05402 l -0.31983,0 z"
               style="fill:#ff533d;fill-opacity:1;fill-rule:nonzero;stroke:none"
               inkscape:connector-curvature="0" />
          </g>
          <g
             id="g3792-3-5-5"
             transform="matrix(1,0,0,0.83080304,-0.15273963,58.308894)"
             style="fill:#ff533d;fill-opacity:1;stroke:none">
            <path
               transform="matrix(0.66953777,0,0,1.0945138,-44.221983,651.78471)"
               sodipodi:type="arc"
               style="fill:#ff533d;fill-opacity:1;fill-rule:evenodd;stroke:none"
               id="path3781-3-6-3-3"
               sodipodi:cx="559.62451"
               sodipodi:cy="-212.65752"
               sodipodi:rx="81.822357"
               sodipodi:ry="12.626906"
               d="m 640.75292,-214.29855 c 5.87294,6.9145 -25.68852,13.25453 -70.4945,14.16085 -44.80598,0.90632 -85.88937,-3.96428 -91.76231,-10.87878 -0.79325,-0.93393 -0.90685,-1.87862 -0.33868,-2.81645 l 81.46708,1.17541 z"
               sodipodi:start="6.1528533"
               sodipodi:end="9.5180006" />
            <path
               id="rect3803-7-5-5"
               d="m 275.65695,396.66667 0,22.53017 109.60119,0 0,-22.53017 -0.40523,0 c -0.90473,7.24615 -24.91493,13.05402 -54.42736,13.05402 -29.51245,0 -53.54395,-5.80787 -54.44869,-13.05402 l -0.31991,0 z"
               style="fill:#ff533d;fill-opacity:1;fill-rule:nonzero;stroke:none"
               inkscape:connector-curvature="0" />
          </g>
        </g>
      </g>
    </g>
  </g>
</svg>
