<?xml version="1.0" encoding="UTF-8" standalone="no"?>
<!-- Generator: Adobe Illustrator 19.0.1, SVG Export Plug-In . SVG Version: 6.00 Build 0)  -->

<svg
   xmlns:dc="http://purl.org/dc/elements/1.1/"
   xmlns:cc="http://creativecommons.org/ns#"
   xmlns:rdf="http://www.w3.org/1999/02/22-rdf-syntax-ns#"
   xmlns:svg="http://www.w3.org/2000/svg"
   xmlns="http://www.w3.org/2000/svg"
   xmlns:sodipodi="http://sodipodi.sourceforge.net/DTD/sodipodi-0.dtd"
   xmlns:inkscape="http://www.inkscape.org/namespaces/inkscape"
   version="1.1"
   id="Layer_1"
   x="0px"
   y="0px"
   viewBox="0 0 650 830"
   xml:space="preserve"
   inkscape:version="0.48.4 r9939"
   width="100%"
   height="100%"
   sodipodi:docname="waffle.svg"><metadata
     id="metadata31"><rdf:RDF><cc:Work
         rdf:about=""><dc:format>image/svg+xml</dc:format><dc:type
           rdf:resource="http://purl.org/dc/dcmitype/StillImage" /><dc:title></dc:title></cc:Work></rdf:RDF></metadata><defs
     id="defs29" /><sodipodi:namedview
     pagecolor="#e60d0d"
     bordercolor="#666666"
     borderopacity="1"
     objecttolerance="10"
     gridtolerance="10"
     guidetolerance="10"
     inkscape:pageopacity="1"
     inkscape:pageshadow="2"
     inkscape:window-width="1920"
     inkscape:window-height="1056"
     id="namedview27"
     showgrid="false"
     inkscape:zoom="1.888"
     inkscape:cx="408.76814"
     inkscape:cy="669.31045"
     inkscape:window-x="0"
     inkscape:window-y="24"
     inkscape:window-maximized="1"
     inkscape:current-layer="Layer_1" /><style
     type="text/css"
     id="style3">
	.st0{fill:none;stroke:#000000;stroke-width:40;stroke-miterlimit:10;}
</style><g
     id="g5"
     style="stroke:#ffffff;stroke-opacity:1"
     transform="translate(-166.28994,-109.27341)"><g
       id="g7"
       style="stroke:#ffffff;stroke-opacity:1"><rect
         x="299"
         y="223.60001"
         transform="matrix(-0.7071,0.7071,-0.7071,-0.7071,1138.775,364.9726)"
         class="st0"
         width="389.5"
         height="389.5"
         id="rect9"
         style="fill:none;stroke:#ffffff;stroke-width:40;stroke-miterlimit:10;stroke-opacity:1" /><line
         class="st0"
         x1="424.89999"
         y1="624.90002"
         x2="700.40002"
         y2="349.5"
         id="line11"
         style="fill:none;stroke:#ffffff;stroke-width:40;stroke-miterlimit:10;stroke-opacity:1" /><line
         class="st0"
         x1="356.10001"
         y1="556"
         x2="631.5"
         y2="280.60001"
         id="line13"
         style="fill:none;stroke:#ffffff;stroke-width:40;stroke-miterlimit:10;stroke-opacity:1" /><line
         class="st0"
         x1="287.20001"
         y1="487.20001"
         x2="562.70001"
         y2="211.8"
         id="line15"
         style="fill:none;stroke:#ffffff;stroke-width:40;stroke-miterlimit:10;stroke-opacity:1" /><line
         class="st0"
         x1="424.89999"
         y1="211.8"
         x2="700.40002"
         y2="487.20001"
         id="line17"
         style="fill:none;stroke:#ffffff;stroke-width:40;stroke-miterlimit:10;stroke-opacity:1" /><line
         class="st0"
         x1="356.10001"
         y1="280.60001"
         x2="631.5"
         y2="556"
         id="line19"
         style="fill:none;stroke:#ffffff;stroke-width:40;stroke-miterlimit:10;stroke-opacity:1" /><line
         class="st0"
         x1="287.20001"
         y1="349.5"
         x2="562.70001"
         y2="624.90002"
         id="line21"
         style="fill:none;stroke:#ffffff;stroke-width:40;stroke-miterlimit:10;stroke-opacity:1" /></g></g><path
     d="m 410.21006,793.72659 c 1.2,18.7 -10.7,34 -23.9,34 -13.2,0 -26.5,-15.6 -23.9,-34 3.6,-25.4 15.2,-34.1 16.1,-79.4 3.3,-164.8 -2.7,-209.9 7.7,-209.9 10.4,0 8.4,46.4 11.7,210.8 0.9,44.9 11.1,60.5 12.3,78.5 z"
     id="path23"
     style="fill:#ffffff;fill-opacity:1;stroke:#ffffff;stroke-opacity:1"
     inkscape:connector-curvature="0" /><path
     d="m 473.11006,645.02659 c 1.1,11.6 -9.4,21.1 -21.1,21.1 -11.6,0 -23.4,-9.7 -21.1,-21.1 3.2,-15.7 13.4,-21.1 14.2,-49.2 2.9,-102.1 -2.4,-153.1 6.8,-153.1 9.1,0 7.4,51.9 10.3,153.7 0.8,27.8 9.8,37.4 10.9,48.6 z"
     id="path25"
     style="fill:#ffffff;fill-opacity:1"
     inkscape:connector-curvature="0" /></svg>